<svg width="294" height="157" viewBox="0 0 294 157" fill="none" xmlns="http://www.w3.org/2000/svg">
<g filter="url(#filter0_d_702_11)">
<path d="M184.759 118.289C179.037 119.404 174.427 123.993 173.299 129.685C171.169 140.426 180.879 148.433 188.195 147.301C190.567 146.934 191.729 144.165 190.642 142.034C189.312 139.426 191.211 136.382 194.147 136.382H198.735C200.795 136.382 202.465 134.682 202.47 132.632C202.441 123.579 194.187 116.457 184.759 118.289ZM178.525 136.382C177.506 136.382 176.683 135.561 176.683 134.544C176.683 133.528 177.506 132.706 178.525 132.706C179.544 132.706 180.367 133.528 180.367 134.544C180.367 135.561 179.544 136.382 178.525 136.382ZM180.367 129.03C179.348 129.03 178.525 128.209 178.525 127.192C178.525 126.175 179.348 125.354 180.367 125.354C181.386 125.354 182.209 126.175 182.209 127.192C182.209 128.209 181.386 129.03 180.367 129.03ZM187.735 125.354C186.716 125.354 185.893 124.533 185.893 123.516C185.893 122.499 186.716 121.678 187.735 121.678C188.754 121.678 189.577 122.499 189.577 123.516C189.577 124.533 188.754 125.354 187.735 125.354ZM195.103 129.03C194.084 129.03 193.261 128.209 193.261 127.192C193.261 126.175 194.084 125.354 195.103 125.354C196.121 125.354 196.944 126.175 196.944 127.192C196.944 128.209 196.121 129.03 195.103 129.03Z" fill="black"/>
<path d="M241.192 120.264C243.452 120.264 245.285 118.862 245.285 117.132C245.285 115.402 243.452 114 241.192 114C238.932 114 237.099 115.402 237.099 117.132C237.099 118.862 238.932 120.264 241.192 120.264ZM227.694 134.716L226.432 136.968H220.728C219.222 136.968 218 137.903 218 139.056C218 140.209 219.222 141.144 220.728 141.144H227.332C228.974 141.144 230.451 140.398 231.093 139.246L231.843 137.907L230.933 137.496C229.456 136.829 228.37 135.841 227.694 134.716ZM250.742 128.616H246.988L244.766 125.141C243.7 123.474 241.743 122.255 239.498 121.817L233.437 120.438C231.024 119.994 228.511 120.402 226.544 121.556L223.162 123.541C221.966 124.242 221.739 125.552 222.657 126.468C223.575 127.383 225.287 127.555 226.482 126.854L229.866 124.87C230.52 124.485 231.353 124.348 232.021 124.469L233.274 124.754L230.08 130.457C229.004 132.38 229.969 134.633 232.323 135.697L239.569 138.971L237.226 144.695C236.776 145.796 237.577 146.967 239.014 147.311C239.286 147.377 239.561 147.408 239.831 147.408C240.992 147.408 242.068 146.836 242.434 145.943L245.131 139.349C245.635 137.993 244.885 136.538 243.286 135.8L238.065 133.441L240.734 128.333L242.463 131.037C243.145 132.103 244.587 132.791 246.138 132.791H250.742C252.248 132.791 253.47 131.856 253.47 130.703C253.47 129.55 252.248 128.616 250.742 128.616Z" fill="black"/>
<path d="M137.337 133.842C137.664 134.221 138.194 134.221 138.521 133.842L139.112 133.157C139.439 132.779 139.439 132.166 139.112 131.787L137.244 129.625L139.112 127.462C139.439 127.084 139.439 126.471 139.112 126.092L138.52 125.407C138.193 125.029 137.664 125.029 137.337 125.407L134.286 128.94C133.959 129.318 133.959 129.931 134.286 130.31L137.337 133.842ZM142.358 133.158L142.95 133.843C143.277 134.221 143.807 134.221 144.133 133.843L147.184 130.31C147.511 129.932 147.511 129.319 147.184 128.94L144.133 125.408C143.807 125.029 143.277 125.029 142.95 125.408L142.358 126.093C142.032 126.471 142.032 127.084 142.358 127.463L144.226 129.625L142.358 131.788C142.032 132.166 142.032 132.779 142.358 133.158ZM156.634 143.188H143.954C143.915 144.387 143.184 145.125 142.241 145.125H139.062C138.084 145.125 137.335 144.067 137.348 143.188H124.837C124.377 143.188 124 143.623 124 144.156V145.125C124 147.256 125.506 149 127.347 149H154.123C155.964 149 157.47 147.256 157.47 145.125V144.156C157.47 143.623 157.094 143.188 156.634 143.188ZM154.123 120.906C154.123 119.308 152.994 118 151.613 118H129.857C128.477 118 127.347 119.308 127.347 120.906V141.25H154.123V120.906ZM150.776 137.375H130.694V121.875H150.776V137.375Z" fill="black"/>
<path d="M106.075 118.085L87.6575 123.513C87.2836 123.63 86.957 123.863 86.725 124.178C86.493 124.493 86.3678 124.874 86.3676 125.265V140.281C85.7644 140.135 85.1463 140.059 84.5257 140.056C81.475 140.056 79 141.702 79 143.732C79 145.762 81.475 147.408 84.5257 147.408C87.5763 147.408 90.0513 145.762 90.0513 143.732V130.309L104.786 126.001V136.605C104.183 136.458 103.565 136.383 102.945 136.379C99.894 136.379 97.4189 138.026 97.4189 140.056C97.4189 142.085 99.894 143.732 102.945 143.732C105.995 143.732 108.47 142.086 108.47 140.056V119.836C108.47 119.548 108.402 119.263 108.271 119.006C108.14 118.749 107.95 118.526 107.717 118.355C107.484 118.185 107.213 118.071 106.928 118.025C106.643 117.978 106.35 117.998 106.075 118.085Z" fill="black"/>
<path d="M63 137.5V116.5C63 115.669 62.3551 115 61.5536 115H41.7857C38.5915 115 36 117.688 36 121V141C36 144.312 38.5915 147 41.7857 147H61.5536C62.3551 147 63 146.331 63 145.5V144.5C63 144.031 62.7891 143.606 62.4636 143.331C62.2105 142.369 62.2105 139.625 62.4636 138.663C62.7891 138.394 63 137.969 63 137.5ZM43.7143 123.375C43.7143 123.169 43.877 123 44.0759 123H56.8527C57.0516 123 57.2143 123.169 57.2143 123.375V124.625C57.2143 124.831 57.0516 125 56.8527 125H44.0759C43.877 125 43.7143 124.831 43.7143 124.625V123.375ZM43.7143 127.375C43.7143 127.169 43.877 127 44.0759 127H56.8527C57.0516 127 57.2143 127.169 57.2143 127.375V128.625C57.2143 128.831 57.0516 129 56.8527 129H44.0759C43.877 129 43.7143 128.831 43.7143 128.625V127.375ZM58.9862 143H41.7857C40.719 143 39.8571 142.106 39.8571 141C39.8571 139.9 40.725 139 41.7857 139H58.9862C58.8717 140.069 58.8717 141.931 58.9862 143Z" fill="black"/>
</g>
<path d="M258.264 8.40341C257.509 8.57529 256.818 8.89327 256.251 9.32964C255.684 9.76601 255.258 10.3075 255.01 10.907L248 27.8516L249.104 28.741L260.383 19.6524C260.158 19.2733 260.022 18.8544 260.022 18.4063C260.022 16.8012 261.637 15.5001 263.628 15.5001C265.62 15.5001 267.235 16.8012 267.235 18.4063C267.235 20.0114 265.62 21.3125 263.628 21.3125C263.072 21.3125 262.553 21.203 262.082 21.0219L250.803 30.1106L251.907 31L272.935 25.3516C273.679 25.1518 274.351 24.8084 274.892 24.3513C275.434 23.8943 275.829 23.3374 276.042 22.7293L279.257 13.5626L269.639 5.81262L258.264 8.40341ZM285.414 4.49089L280.897 0.851436C279.488 -0.283812 277.203 -0.283812 275.795 0.851436L271.546 4.27535L281.165 12.0265L285.414 8.60261C286.822 7.46736 286.822 5.62675 285.414 4.49089Z" fill="black"/>
<g filter="url(#filter1_d_702_11)">
<path d="M36.4 43C36.4 44.5333 36.2667 45.8667 36 47H24C24.2667 48.0667 24.4 49.4 24.4 51C24.4 52.5333 24.2667 53.8667 24 55C24.2667 56.0667 24.4 57.4 24.4 59C24.4 60.5333 24.2667 61.8667 24 63C24.2667 64.0667 24.4 65.4 24.4 67C24.4 68.5333 24.2667 69.8667 24 71C24.2667 72.0667 24.4 73.4 24.4 75C24.4 76.5333 24.2667 77.8667 24 79C24.2667 80.0667 24.4 81.4 24.4 83C24.4 84.5333 24.2667 85.8667 24 87C24.2667 88.0667 24.4 89.4 24.4 91C24.4 92.5333 24.2667 93.8667 24 95H16C15.7333 93.8667 15.6 92.5333 15.6 91C15.6 89.4 15.7333 88.0667 16 87C15.7333 85.8667 15.6 84.5333 15.6 83C15.6 81.4 15.7333 80.0667 16 79C15.7333 77.8667 15.6 76.5333 15.6 75C15.6 73.4 15.7333 72.0667 16 71C15.7333 69.8667 15.6 68.5333 15.6 67C15.6 65.4 15.7333 64.0667 16 63C15.7333 61.8667 15.6 60.5333 15.6 59C15.6 57.4 15.7333 56.0667 16 55C15.7333 53.8667 15.6 52.5333 15.6 51C15.6 49.4 15.7333 48.0667 16 47H4C3.73333 45.8667 3.6 44.5333 3.6 43C3.6 41.4 3.73333 40.0667 4 39H36C36.2667 40.0667 36.4 41.4 36.4 43ZM55.4391 83C55.4391 84.5333 55.3057 85.8667 55.0391 87H65.0391C65.3057 88.0667 65.4391 89.4 65.4391 91C65.4391 92.5333 65.3057 93.8667 65.0391 95H49.0391C48.7724 93.8667 48.6391 92.5333 48.6391 91C48.6391 89.4 48.7724 88.0667 49.0391 87H44.0391C43.7724 85.8667 43.6391 84.5333 43.6391 83C43.6391 81.4 43.7724 80.0667 44.0391 79C43.7724 77.8667 43.6391 76.5333 43.6391 75C43.6391 73.4 43.7724 72.0667 44.0391 71C43.7724 69.8667 43.6391 68.5333 43.6391 67C43.6391 65.4 43.7724 64.0667 44.0391 63C43.7724 61.8667 43.6391 60.5333 43.6391 59C43.6391 57.4 43.7724 56.0667 44.0391 55H52.0391C52.3057 56.0667 52.4391 57.4 52.4391 59C52.4391 60.5333 52.3057 61.8667 52.0391 63C52.3057 64.0667 52.4391 65.4 52.4391 67C52.4391 68.5333 52.3057 69.8667 52.0391 71C52.3057 72.0667 52.4391 73.4 52.4391 75C52.4391 76.5333 52.3057 77.8667 52.0391 79H55.0391C55.3057 80.0667 55.4391 81.4 55.4391 83ZM76.0391 63C76.3057 64.0667 76.4391 65.4 76.4391 67C76.4391 68.5333 76.3057 69.8667 76.0391 71C76.3057 72.0667 76.4391 73.4 76.4391 75C76.4391 76.5333 76.3057 77.8667 76.0391 79C76.3057 80.0667 76.4391 81.4 76.4391 83C76.4391 84.5333 76.3057 85.8667 76.0391 87C76.3057 88.0667 76.4391 89.4 76.4391 91C76.4391 92.5333 76.3057 93.8667 76.0391 95H68.0391C67.7724 93.8667 67.6391 92.5333 67.6391 91C67.6391 89.4 67.7724 88.0667 68.0391 87H65.0391C64.7724 85.8667 64.6391 84.5333 64.6391 83C64.6391 81.4 64.7724 80.0667 65.0391 79H68.0391C67.7724 77.8667 67.6391 76.5333 67.6391 75C67.6391 73.4 67.7724 72.0667 68.0391 71C67.7724 69.8667 67.6391 68.5333 67.6391 67C67.6391 65.4 67.7724 64.0667 68.0391 63C67.7724 61.8667 67.6391 60.5333 67.6391 59C67.6391 57.4 67.7724 56.0667 68.0391 55H76.0391C76.3057 56.0667 76.4391 57.4 76.4391 59C76.4391 60.5333 76.3057 61.8667 76.0391 63ZM116.078 63C116.345 64.0667 116.478 65.4 116.478 67C116.478 68.5333 116.345 69.8667 116.078 71H108.078C107.811 69.8667 107.678 68.5333 107.678 67C107.678 65.4 107.811 64.0667 108.078 63H101.078C101.345 64.0667 101.478 65.4 101.478 67C101.478 68.5333 101.345 69.8667 101.078 71H98.0781C98.3448 72.0667 98.4781 73.4 98.4781 75C98.4781 76.5333 98.3448 77.8667 98.0781 79C98.3448 80.0667 98.4781 81.4 98.4781 83C98.4781 84.5333 98.3448 85.8667 98.0781 87H104.078C104.345 88.0667 104.478 89.4 104.478 91C104.478 92.5333 104.345 93.8667 104.078 95H84.0781C83.8115 93.8667 83.6781 92.5333 83.6781 91C83.6781 89.4 83.8115 88.0667 84.0781 87H90.0781C89.8115 85.8667 89.6781 84.5333 89.6781 83C89.6781 81.4 89.8115 80.0667 90.0781 79C89.8115 77.8667 89.6781 76.5333 89.6781 75C89.6781 73.4 89.8115 72.0667 90.0781 71C89.8115 69.8667 89.6781 68.5333 89.6781 67C89.6781 65.4 89.8115 64.0667 90.0781 63H84.0781C83.8115 61.8667 83.6781 60.5333 83.6781 59C83.6781 57.4 83.8115 56.0667 84.0781 55H94.0781C94.3448 56.0667 94.4781 57.4 94.4781 59C94.4781 60.5333 94.3448 61.8667 94.0781 63H98.0781C97.8115 61.8667 97.6781 60.5333 97.6781 59C97.6781 57.4 97.8115 56.0667 98.0781 55H113.078C113.345 56.0667 113.478 57.4 113.478 59C113.478 60.5333 113.345 61.8667 113.078 63H116.078ZM131.517 59C131.517 60.5333 131.384 61.8667 131.117 63H135.117C135.384 64.0667 135.517 65.4 135.517 67C135.517 68.5333 135.384 69.8667 135.117 71H132.117C132.384 72.0667 132.517 73.4 132.517 75C132.517 76.5333 132.384 77.8667 132.117 79C132.384 80.0667 132.517 81.4 132.517 83C132.517 84.5333 132.384 85.8667 132.117 87C132.384 88.0667 132.517 89.4 132.517 91C132.517 92.5333 132.384 93.8667 132.117 95H124.117C123.851 93.8667 123.717 92.5333 123.717 91C123.717 89.4 123.851 88.0667 124.117 87C123.851 85.8667 123.717 84.5333 123.717 83C123.717 81.4 123.851 80.0667 124.117 79C123.851 77.8667 123.717 76.5333 123.717 75C123.717 73.4 123.851 72.0667 124.117 71C123.851 69.8667 123.717 68.5333 123.717 67C123.717 65.4 123.851 64.0667 124.117 63C123.851 61.8667 123.717 60.5333 123.717 59C123.717 57.4 123.851 56.0667 124.117 55H131.117C131.384 56.0667 131.517 57.4 131.517 59ZM156.117 71C156.384 72.0667 156.517 73.4 156.517 75C156.517 76.5333 156.384 77.8667 156.117 79C156.384 80.0667 156.517 81.4 156.517 83C156.517 84.5333 156.384 85.8667 156.117 87C156.384 88.0667 156.517 89.4 156.517 91C156.517 92.5333 156.384 93.8667 156.117 95H148.117C147.851 93.8667 147.717 92.5333 147.717 91C147.717 89.4 147.851 88.0667 148.117 87C147.851 85.8667 147.717 84.5333 147.717 83C147.717 81.4 147.851 80.0667 148.117 79C147.851 77.8667 147.717 76.5333 147.717 75C147.717 73.4 147.851 72.0667 148.117 71C147.851 69.8667 147.717 68.5333 147.717 67C147.717 65.4 147.851 64.0667 148.117 63H135.117C134.851 61.8667 134.717 60.5333 134.717 59C134.717 57.4 134.851 56.0667 135.117 55H151.117C151.384 56.0667 151.517 57.4 151.517 59C151.517 60.5333 151.384 61.8667 151.117 63H156.117C156.384 64.0667 156.517 65.4 156.517 67C156.517 68.5333 156.384 69.8667 156.117 71Z" fill="black"/>
<path d="M196.556 75C196.556 76.5333 196.423 77.8667 196.156 79H193.156C193.423 80.0667 193.556 81.4 193.556 83C193.556 84.5333 193.423 85.8667 193.156 87H188.156C188.423 88.0667 188.556 89.4 188.556 91C188.556 92.5333 188.423 93.8667 188.156 95H172.156C171.89 93.8667 171.756 92.5333 171.756 91C171.756 89.4 171.89 88.0667 172.156 87H167.156C166.89 85.8667 166.756 84.5333 166.756 83C166.756 81.4 166.89 80.0667 167.156 79H164.156C163.89 77.8667 163.756 76.5333 163.756 75C163.756 73.4 163.89 72.0667 164.156 71H167.156C166.89 69.8667 166.756 68.5333 166.756 67C166.756 65.4 166.89 64.0667 167.156 63H172.156C171.89 61.8667 171.756 60.5333 171.756 59C171.756 57.4 171.89 56.0667 172.156 55H188.156C188.423 56.0667 188.556 57.4 188.556 59C188.556 60.5333 188.423 61.8667 188.156 63H193.156C193.423 64.0667 193.556 65.4 193.556 67C193.556 68.5333 193.423 69.8667 193.156 71H196.156C196.423 72.0667 196.556 73.4 196.556 75ZM188.156 79C187.89 77.8667 187.756 76.5333 187.756 75C187.756 73.4 187.89 72.0667 188.156 71H185.156C184.89 69.8667 184.756 68.5333 184.756 67C184.756 65.4 184.89 64.0667 185.156 63H175.156C175.423 64.0667 175.556 65.4 175.556 67C175.556 68.5333 175.423 69.8667 175.156 71H172.156C172.423 72.0667 172.556 73.4 172.556 75C172.556 76.5333 172.423 77.8667 172.156 79H175.156C175.423 80.0667 175.556 81.4 175.556 83C175.556 84.5333 175.423 85.8667 175.156 87H185.156C184.89 85.8667 184.756 84.5333 184.756 83C184.756 81.4 184.89 80.0667 185.156 79H188.156ZM215.595 83C215.595 84.5333 215.462 85.8667 215.195 87H225.195C225.462 88.0667 225.595 89.4 225.595 91C225.595 92.5333 225.462 93.8667 225.195 95H209.195C208.929 93.8667 208.795 92.5333 208.795 91C208.795 89.4 208.929 88.0667 209.195 87H204.195C203.929 85.8667 203.795 84.5333 203.795 83C203.795 81.4 203.929 80.0667 204.195 79C203.929 77.8667 203.795 76.5333 203.795 75C203.795 73.4 203.929 72.0667 204.195 71C203.929 69.8667 203.795 68.5333 203.795 67C203.795 65.4 203.929 64.0667 204.195 63C203.929 61.8667 203.795 60.5333 203.795 59C203.795 57.4 203.929 56.0667 204.195 55H212.195C212.462 56.0667 212.595 57.4 212.595 59C212.595 60.5333 212.462 61.8667 212.195 63C212.462 64.0667 212.595 65.4 212.595 67C212.595 68.5333 212.462 69.8667 212.195 71C212.462 72.0667 212.595 73.4 212.595 75C212.595 76.5333 212.462 77.8667 212.195 79H215.195C215.462 80.0667 215.595 81.4 215.595 83ZM236.195 63C236.462 64.0667 236.595 65.4 236.595 67C236.595 68.5333 236.462 69.8667 236.195 71C236.462 72.0667 236.595 73.4 236.595 75C236.595 76.5333 236.462 77.8667 236.195 79C236.462 80.0667 236.595 81.4 236.595 83C236.595 84.5333 236.462 85.8667 236.195 87C236.462 88.0667 236.595 89.4 236.595 91C236.595 92.5333 236.462 93.8667 236.195 95H228.195C227.929 93.8667 227.795 92.5333 227.795 91C227.795 89.4 227.929 88.0667 228.195 87H225.195C224.929 85.8667 224.795 84.5333 224.795 83C224.795 81.4 224.929 80.0667 225.195 79H228.195C227.929 77.8667 227.795 76.5333 227.795 75C227.795 73.4 227.929 72.0667 228.195 71C227.929 69.8667 227.795 68.5333 227.795 67C227.795 65.4 227.929 64.0667 228.195 63C227.929 61.8667 227.795 60.5333 227.795 59C227.795 57.4 227.929 56.0667 228.195 55H236.195C236.462 56.0667 236.595 57.4 236.595 59C236.595 60.5333 236.462 61.8667 236.195 63ZM272.234 87C272.501 88.0667 272.634 89.4 272.634 91C272.634 92.5333 272.501 93.8667 272.234 95H256.234C255.968 93.8667 255.834 92.5333 255.834 91C255.834 89.4 255.968 88.0667 256.234 87H252.234C251.968 85.8667 251.834 84.5333 251.834 83C251.834 81.4 251.968 80.0667 252.234 79C251.968 77.8667 251.834 76.5333 251.834 75C251.834 73.4 251.968 72.0667 252.234 71C251.968 69.8667 251.834 68.5333 251.834 67C251.834 65.4 251.968 64.0667 252.234 63H244.234C243.968 61.8667 243.834 60.5333 243.834 59C243.834 57.4 243.968 56.0667 244.234 55H252.234C251.968 53.8667 251.834 52.5333 251.834 51C251.834 49.4 251.968 48.0667 252.234 47C251.968 45.8667 251.834 44.5333 251.834 43C251.834 41.4 251.968 40.0667 252.234 39H260.234C260.501 40.0667 260.634 41.4 260.634 43C260.634 44.5333 260.501 45.8667 260.234 47C260.501 48.0667 260.634 49.4 260.634 51C260.634 52.5333 260.501 53.8667 260.234 55H272.234C272.501 56.0667 272.634 57.4 272.634 59C272.634 60.5333 272.501 61.8667 272.234 63H260.234C260.501 64.0667 260.634 65.4 260.634 67C260.634 68.5333 260.501 69.8667 260.234 71C260.501 72.0667 260.634 73.4 260.634 75C260.634 76.5333 260.501 77.8667 260.234 79C260.501 80.0667 260.634 81.4 260.634 83C260.634 84.5333 260.501 85.8667 260.234 87H272.234Z" fill="#FF0000"/>
</g>
<defs>
<filter id="filter0_d_702_11" x="36" y="114" width="233.47" height="43" filterUnits="userSpaceOnUse" color-interpolation-filters="sRGB">
<feFlood flood-opacity="0" result="BackgroundImageFix"/>
<feColorMatrix in="SourceAlpha" type="matrix" values="0 0 0 0 0 0 0 0 0 0 0 0 0 0 0 0 0 0 127 0" result="hardAlpha"/>
<feOffset dx="12" dy="4"/>
<feGaussianBlur stdDeviation="2"/>
<feComposite in2="hardAlpha" operator="out"/>
<feColorMatrix type="matrix" values="0 0 0 0 0 0 0 0 0 0 0 0 0 0 0 0 0 0 0.25 0"/>
<feBlend mode="normal" in2="BackgroundImageFix" result="effect1_dropShadow_702_11"/>
<feBlend mode="normal" in="SourceGraphic" in2="effect1_dropShadow_702_11" result="shape"/>
</filter>
<filter id="filter1_d_702_11" x="3.59998" y="39" width="290.034" height="64" filterUnits="userSpaceOnUse" color-interpolation-filters="sRGB">
<feFlood flood-opacity="0" result="BackgroundImageFix"/>
<feColorMatrix in="SourceAlpha" type="matrix" values="0 0 0 0 0 0 0 0 0 0 0 0 0 0 0 0 0 0 127 0" result="hardAlpha"/>
<feOffset dx="17" dy="4"/>
<feGaussianBlur stdDeviation="2"/>
<feComposite in2="hardAlpha" operator="out"/>
<feColorMatrix type="matrix" values="0 0 0 0 0 0 0 0 0 0 0 0 0 0 0 0 0 0 0.25 0"/>
<feBlend mode="normal" in2="BackgroundImageFix" result="effect1_dropShadow_702_11"/>
<feBlend mode="normal" in="SourceGraphic" in2="effect1_dropShadow_702_11" result="shape"/>
</filter>
</defs>
</svg>
